# xmcd CD database file
#
# Track frame offsets:
#	150
#	21388
#	41666
#	57724
#	82855
#	106645
#	127703
#	147128
#	166727
#	185530
#	210729
#	236434
#	262396
#	285626
#
# Disc length: 4084 seconds
#
# Revision: 0
# Processed by: cddbd v1.5.2PL0 Copyright (c) Steve Scherf et al.
# Submitted via: CDex 1.51
#
DISCID=c10ff20e
DTITLE=Super Chikan - Welcome To Sunny Bluesville
DYEAR=2010
DGENRE=Blues
TTITLE0=All My Yesterdays
TTITLE1=555
TTITLE2=Do What Your Daddy Said
TTITLE3=Bluesville Blues
TTITLE4=Grandpas Blues
TTITLE5=Birthday Boogie
TTITLE6=Mamas Milk Cow Blues
TTITLE7=Old Delta Blues Scraps
TTITLE8=Hooker Boogie
TTITLE9=Pretty Red Dress
TTITLE10=Mr. Jimmy
TTITLE11=Made You Laugh
TTITLE12=St. Blues Guitar
TTITLE13=Sunshine Boogie
EXTD=YEAR: 2010
EXTT0=
EXTT1=
EXTT2=
EXTT3=
EXTT4=
EXTT5=
EXTT6=
EXTT7=
EXTT8=
EXTT9=
EXTT10=
EXTT11=
EXTT12=
EXTT13=
PLAYORDER=
